<svg width="369" height="35" viewBox="0 0 369 35" fill="none" xmlns="http://www.w3.org/2000/svg">
<g filter="url(#filter0_d_317_883)">
<path d="M20.016 3.6H25.2V26H20.016V3.6ZM9.84 26H4.656V3.6H9.84V26ZM20.4 16.816H9.456V12.432H20.4V16.816ZM40.7078 26V22.64L40.3878 21.904V15.888C40.3878 14.8213 40.0571 13.9893 39.3958 13.392C38.7558 12.7947 37.7638 12.496 36.4198 12.496C35.5024 12.496 34.5958 12.6453 33.6998 12.944C32.8251 13.2213 32.0784 13.6053 31.4598 14.096L29.6678 10.608C30.6064 9.94667 31.7371 9.43467 33.0598 9.072C34.3824 8.70933 35.7264 8.528 37.0918 8.528C39.7158 8.528 41.7531 9.14667 43.2038 10.384C44.6544 11.6213 45.3798 13.552 45.3798 16.176V26H40.7078ZM35.4598 26.256C34.1158 26.256 32.9638 26.032 32.0038 25.584C31.0438 25.1147 30.3078 24.4853 29.7958 23.696C29.2838 22.9067 29.0278 22.0213 29.0278 21.04C29.0278 20.016 29.2731 19.12 29.7638 18.352C30.2758 17.584 31.0758 16.9867 32.1638 16.56C33.2518 16.112 34.6704 15.888 36.4198 15.888H40.9958V18.8H36.9638C35.7904 18.8 34.9798 18.992 34.5318 19.376C34.1051 19.76 33.8918 20.24 33.8918 20.816C33.8918 21.456 34.1371 21.968 34.6278 22.352C35.1398 22.7147 35.8331 22.896 36.7078 22.896C37.5398 22.896 38.2864 22.704 38.9478 22.32C39.6091 21.9147 40.0891 21.328 40.3878 20.56L41.1558 22.864C40.7931 23.9733 40.1318 24.816 39.1718 25.392C38.2118 25.968 36.9744 26.256 35.4598 26.256ZM60.3618 8.528C61.7271 8.528 62.9431 8.80533 64.0098 9.36C65.0978 9.89333 65.9511 10.7253 66.5698 11.856C67.1884 12.9653 67.4978 14.3947 67.4978 16.144V26H62.5058V16.912C62.5058 15.5253 62.1964 14.5013 61.5778 13.84C60.9804 13.1787 60.1271 12.848 59.0178 12.848C58.2284 12.848 57.5138 13.0187 56.8738 13.36C56.2551 13.68 55.7644 14.1813 55.4018 14.864C55.0604 15.5467 54.8898 16.4213 54.8898 17.488V26H49.8978V8.784H54.6658V13.552L53.7698 12.112C54.3884 10.96 55.2738 10.0747 56.4258 9.456C57.5778 8.83733 58.8898 8.528 60.3618 8.528ZM77.8148 26.256C76.3428 26.256 74.9241 26.0853 73.5588 25.744C72.2148 25.3813 71.1481 24.9333 70.3588 24.4L72.0228 20.816C72.8121 21.3067 73.7401 21.712 74.8068 22.032C75.8948 22.3307 76.9614 22.48 78.0068 22.48C79.1588 22.48 79.9694 22.3413 80.4388 22.064C80.9294 21.7867 81.1748 21.4027 81.1748 20.912C81.1748 20.5067 80.9828 20.208 80.5988 20.016C80.2361 19.8027 79.7454 19.6427 79.1267 19.536C78.5081 19.4293 77.8254 19.3227 77.0788 19.216C76.3534 19.1093 75.6174 18.9707 74.8708 18.8C74.1241 18.608 73.4414 18.3307 72.8228 17.968C72.2041 17.6053 71.7028 17.1147 71.3188 16.496C70.9561 15.8773 70.7747 15.0773 70.7747 14.096C70.7747 13.008 71.0841 12.048 71.7028 11.216C72.3428 10.384 73.2601 9.73333 74.4548 9.264C75.6494 8.77333 77.0788 8.528 78.7428 8.528C79.9161 8.528 81.1108 8.656 82.3268 8.912C83.5428 9.168 84.5561 9.54133 85.3668 10.032L83.7028 13.584C82.8708 13.0933 82.0281 12.7627 81.1748 12.592C80.3428 12.4 79.5321 12.304 78.7428 12.304C77.6334 12.304 76.8228 12.4533 76.3108 12.752C75.7988 13.0507 75.5428 13.4347 75.5428 13.904C75.5428 14.3307 75.7241 14.6507 76.0868 14.864C76.4708 15.0773 76.9721 15.248 77.5908 15.376C78.2094 15.504 78.8814 15.6213 79.6068 15.728C80.3534 15.8133 81.1001 15.952 81.8468 16.144C82.5934 16.336 83.2654 16.6133 83.8628 16.976C84.4814 17.3173 84.9828 17.7973 85.3668 18.416C85.7508 19.0133 85.9428 19.8027 85.9428 20.784C85.9428 21.8507 85.6228 22.8 84.9828 23.632C84.3428 24.4427 83.4148 25.0827 82.1988 25.552C81.0041 26.0213 79.5428 26.256 77.8148 26.256ZM97.5668 26.256C95.6041 26.256 93.8761 25.872 92.3828 25.104C90.9108 24.336 89.7694 23.2907 88.9588 21.968C88.1481 20.624 87.7428 19.0987 87.7428 17.392C87.7428 15.664 88.1374 14.1387 88.9268 12.816C89.7374 11.472 90.8361 10.4267 92.2228 9.68C93.6094 8.912 95.1774 8.528 96.9268 8.528C98.6121 8.528 100.127 8.89067 101.471 9.616C102.836 10.32 103.913 11.344 104.703 12.688C105.492 14.0107 105.887 15.6 105.887 17.456C105.887 17.648 105.876 17.872 105.855 18.128C105.833 18.3627 105.812 18.5867 105.791 18.8H91.8068V15.888H103.167L101.247 16.752C101.247 15.856 101.065 15.0773 100.703 14.416C100.34 13.7547 99.8388 13.2427 99.1988 12.88C98.5588 12.496 97.8121 12.304 96.9588 12.304C96.1054 12.304 95.3481 12.496 94.6868 12.88C94.0468 13.2427 93.5454 13.7653 93.1828 14.448C92.8201 15.1093 92.6388 15.8987 92.6388 16.816V17.584C92.6388 18.5227 92.8414 19.3547 93.2468 20.08C93.6734 20.784 94.2601 21.328 95.0068 21.712C95.7748 22.0747 96.6708 22.256 97.6948 22.256C98.6121 22.256 99.4121 22.1173 100.095 21.84C100.799 21.5627 101.439 21.1467 102.015 20.592L104.671 23.472C103.881 24.368 102.889 25.0613 101.695 25.552C100.5 26.0213 99.1241 26.256 97.5668 26.256ZM109.21 26V8.784H114.202V26H109.21ZM111.706 6.384C110.789 6.384 110.042 6.11733 109.466 5.584C108.89 5.05067 108.602 4.38933 108.602 3.6C108.602 2.81067 108.89 2.14933 109.466 1.616C110.042 1.08267 110.789 0.815998 111.706 0.815998C112.624 0.815998 113.37 1.072 113.946 1.584C114.522 2.07467 114.81 2.71467 114.81 3.504C114.81 4.336 114.522 5.02933 113.946 5.584C113.392 6.11733 112.645 6.384 111.706 6.384Z" fill="#2A90D9"/>
<path d="M120.723 26.256C119.87 26.256 119.134 25.968 118.515 25.392C117.918 24.7947 117.619 24.0373 117.619 23.12C117.619 22.2027 117.918 21.4667 118.515 20.912C119.134 20.336 119.87 20.048 120.723 20.048C121.598 20.048 122.334 20.336 122.931 20.912C123.529 21.4667 123.827 22.2027 123.827 23.12C123.827 24.0373 123.529 24.7947 122.931 25.392C122.334 25.968 121.598 26.256 120.723 26.256ZM138.083 26V22.64L137.763 21.904V15.888C137.763 14.8213 137.432 13.9893 136.771 13.392C136.131 12.7947 135.139 12.496 133.795 12.496C132.877 12.496 131.971 12.6453 131.075 12.944C130.2 13.2213 129.453 13.6053 128.835 14.096L127.043 10.608C127.981 9.94667 129.112 9.43467 130.435 9.072C131.757 8.70933 133.101 8.528 134.467 8.528C137.091 8.528 139.128 9.14667 140.579 10.384C142.029 11.6213 142.755 13.552 142.755 16.176V26H138.083ZM132.835 26.256C131.491 26.256 130.339 26.032 129.379 25.584C128.419 25.1147 127.683 24.4853 127.171 23.696C126.659 22.9067 126.403 22.0213 126.403 21.04C126.403 20.016 126.648 19.12 127.139 18.352C127.651 17.584 128.451 16.9867 129.539 16.56C130.627 16.112 132.045 15.888 133.795 15.888H138.371V18.8H134.339C133.165 18.8 132.355 18.992 131.907 19.376C131.48 19.76 131.267 20.24 131.267 20.816C131.267 21.456 131.512 21.968 132.003 22.352C132.515 22.7147 133.208 22.896 134.083 22.896C134.915 22.896 135.661 22.704 136.323 22.32C136.984 21.9147 137.464 21.328 137.763 20.56L138.531 22.864C138.168 23.9733 137.507 24.816 136.547 25.392C135.587 25.968 134.349 26.256 132.835 26.256ZM155.718 26.256C153.862 26.256 152.208 25.8827 150.758 25.136C149.307 24.368 148.166 23.312 147.334 21.968C146.523 20.624 146.118 19.0987 146.118 17.392C146.118 15.664 146.523 14.1387 147.334 12.816C148.166 11.472 149.307 10.4267 150.758 9.68C152.208 8.912 153.862 8.528 155.718 8.528C157.531 8.528 159.11 8.912 160.454 9.68C161.798 10.4267 162.79 11.504 163.43 12.912L159.558 14.992C159.11 14.1813 158.544 13.584 157.862 13.2C157.2 12.816 156.475 12.624 155.686 12.624C154.832 12.624 154.064 12.816 153.382 13.2C152.699 13.584 152.155 14.128 151.75 14.832C151.366 15.536 151.174 16.3893 151.174 17.392C151.174 18.3947 151.366 19.248 151.75 19.952C152.155 20.656 152.699 21.2 153.382 21.584C154.064 21.968 154.832 22.16 155.686 22.16C156.475 22.16 157.2 21.9787 157.862 21.616C158.544 21.232 159.11 20.624 159.558 19.792L163.43 21.904C162.79 23.2907 161.798 24.368 160.454 25.136C159.11 25.8827 157.531 26.256 155.718 26.256ZM174.405 26.256C172.549 26.256 170.896 25.8827 169.445 25.136C167.995 24.368 166.853 23.312 166.021 21.968C165.211 20.624 164.805 19.0987 164.805 17.392C164.805 15.664 165.211 14.1387 166.021 12.816C166.853 11.472 167.995 10.4267 169.445 9.68C170.896 8.912 172.549 8.528 174.405 8.528C176.219 8.528 177.797 8.912 179.141 9.68C180.485 10.4267 181.477 11.504 182.117 12.912L178.245 14.992C177.797 14.1813 177.232 13.584 176.549 13.2C175.888 12.816 175.163 12.624 174.373 12.624C173.52 12.624 172.752 12.816 172.069 13.2C171.387 13.584 170.843 14.128 170.437 14.832C170.053 15.536 169.861 16.3893 169.861 17.392C169.861 18.3947 170.053 19.248 170.437 19.952C170.843 20.656 171.387 21.2 172.069 21.584C172.752 21.968 173.52 22.16 174.373 22.16C175.163 22.16 175.888 21.9787 176.549 21.616C177.232 21.232 177.797 20.624 178.245 19.792L182.117 21.904C181.477 23.2907 180.485 24.368 179.141 25.136C177.797 25.8827 176.219 26.256 174.405 26.256ZM192.965 26.256C191.13 26.256 189.498 25.872 188.069 25.104C186.661 24.336 185.541 23.2907 184.709 21.968C183.898 20.624 183.493 19.0987 183.493 17.392C183.493 15.664 183.898 14.1387 184.709 12.816C185.541 11.472 186.661 10.4267 188.069 9.68C189.498 8.912 191.13 8.528 192.965 8.528C194.778 8.528 196.399 8.912 197.829 9.68C199.258 10.4267 200.378 11.4613 201.189 12.784C201.999 14.1067 202.405 15.6427 202.405 17.392C202.405 19.0987 201.999 20.624 201.189 21.968C200.378 23.2907 199.258 24.336 197.829 25.104C196.399 25.872 194.778 26.256 192.965 26.256ZM192.965 22.16C193.797 22.16 194.543 21.968 195.205 21.584C195.866 21.2 196.389 20.656 196.773 19.952C197.157 19.2267 197.349 18.3733 197.349 17.392C197.349 16.3893 197.157 15.536 196.773 14.832C196.389 14.128 195.866 13.584 195.205 13.2C194.543 12.816 193.797 12.624 192.965 12.624C192.133 12.624 191.386 12.816 190.725 13.2C190.063 13.584 189.53 14.128 189.125 14.832C188.741 15.536 188.549 16.3893 188.549 17.392C188.549 18.3733 188.741 19.2267 189.125 19.952C189.53 20.656 190.063 21.2 190.725 21.584C191.386 21.968 192.133 22.16 192.965 22.16ZM227.79 8.528C229.155 8.528 230.36 8.80533 231.406 9.36C232.472 9.89333 233.304 10.7253 233.902 11.856C234.52 12.9653 234.83 14.3947 234.83 16.144V26H229.838V16.912C229.838 15.5253 229.55 14.5013 228.974 13.84C228.398 13.1787 227.587 12.848 226.542 12.848C225.816 12.848 225.166 13.0187 224.59 13.36C224.014 13.68 223.566 14.1707 223.246 14.832C222.926 15.4933 222.766 16.336 222.766 17.36V26H217.774V16.912C217.774 15.5253 217.486 14.5013 216.91 13.84C216.355 13.1787 215.555 12.848 214.51 12.848C213.784 12.848 213.134 13.0187 212.558 13.36C211.982 13.68 211.534 14.1707 211.214 14.832C210.894 15.4933 210.734 16.336 210.734 17.36V26H205.742V8.784H210.51V13.488L209.614 12.112C210.211 10.9387 211.054 10.0533 212.142 9.456C213.251 8.83733 214.51 8.528 215.918 8.528C217.496 8.528 218.872 8.93333 220.046 9.744C221.24 10.5333 222.03 11.7493 222.414 13.392L220.654 12.912C221.23 11.568 222.147 10.5013 223.406 9.712C224.686 8.92267 226.147 8.528 227.79 8.528ZM247.621 26.256C245.786 26.256 244.154 25.872 242.725 25.104C241.317 24.336 240.197 23.2907 239.365 21.968C238.554 20.624 238.149 19.0987 238.149 17.392C238.149 15.664 238.554 14.1387 239.365 12.816C240.197 11.472 241.317 10.4267 242.725 9.68C244.154 8.912 245.786 8.528 247.621 8.528C249.434 8.528 251.056 8.912 252.485 9.68C253.914 10.4267 255.034 11.4613 255.845 12.784C256.656 14.1067 257.061 15.6427 257.061 17.392C257.061 19.0987 256.656 20.624 255.845 21.968C255.034 23.2907 253.914 24.336 252.485 25.104C251.056 25.872 249.434 26.256 247.621 26.256ZM247.621 22.16C248.453 22.16 249.2 21.968 249.861 21.584C250.522 21.2 251.045 20.656 251.429 19.952C251.813 19.2267 252.005 18.3733 252.005 17.392C252.005 16.3893 251.813 15.536 251.429 14.832C251.045 14.128 250.522 13.584 249.861 13.2C249.2 12.816 248.453 12.624 247.621 12.624C246.789 12.624 246.042 12.816 245.381 13.2C244.72 13.584 244.186 14.128 243.781 14.832C243.397 15.536 243.205 16.3893 243.205 17.392C243.205 18.3733 243.397 19.2267 243.781 19.952C244.186 20.656 244.72 21.2 245.381 21.584C246.042 21.968 246.789 22.16 247.621 22.16ZM267.79 26.256C266.168 26.256 264.707 25.8933 263.406 25.168C262.104 24.4213 261.07 23.3867 260.302 22.064C259.555 20.7413 259.182 19.184 259.182 17.392C259.182 15.5787 259.555 14.0107 260.302 12.688C261.07 11.3653 262.104 10.3413 263.406 9.616C264.707 8.89067 266.168 8.528 267.79 8.528C269.24 8.528 270.51 8.848 271.598 9.488C272.686 10.128 273.528 11.0987 274.126 12.4C274.723 13.7013 275.022 15.3653 275.022 17.392C275.022 19.3973 274.734 21.0613 274.158 22.384C273.582 23.6853 272.75 24.656 271.662 25.296C270.595 25.936 269.304 26.256 267.79 26.256ZM268.654 22.16C269.464 22.16 270.2 21.968 270.862 21.584C271.523 21.2 272.046 20.656 272.43 19.952C272.835 19.2267 273.038 18.3733 273.038 17.392C273.038 16.3893 272.835 15.536 272.43 14.832C272.046 14.128 271.523 13.584 270.862 13.2C270.2 12.816 269.464 12.624 268.654 12.624C267.822 12.624 267.075 12.816 266.414 13.2C265.752 13.584 265.219 14.128 264.814 14.832C264.43 15.536 264.238 16.3893 264.238 17.392C264.238 18.3733 264.43 19.2267 264.814 19.952C265.219 20.656 265.752 21.2 266.414 21.584C267.075 21.968 267.822 22.16 268.654 22.16ZM273.166 26V22.48L273.262 17.36L272.942 12.272V2.256H277.934V26H273.166ZM293.114 26V22.64L292.794 21.904V15.888C292.794 14.8213 292.463 13.9893 291.802 13.392C291.162 12.7947 290.17 12.496 288.826 12.496C287.909 12.496 287.002 12.6453 286.106 12.944C285.231 13.2213 284.485 13.6053 283.866 14.096L282.074 10.608C283.013 9.94667 284.143 9.43467 285.466 9.072C286.789 8.70933 288.133 8.528 289.498 8.528C292.122 8.528 294.159 9.14667 295.61 10.384C297.061 11.6213 297.786 13.552 297.786 16.176V26H293.114ZM287.866 26.256C286.522 26.256 285.37 26.032 284.41 25.584C283.45 25.1147 282.714 24.4853 282.202 23.696C281.69 22.9067 281.434 22.0213 281.434 21.04C281.434 20.016 281.679 19.12 282.17 18.352C282.682 17.584 283.482 16.9867 284.57 16.56C285.658 16.112 287.077 15.888 288.826 15.888H293.402V18.8H289.37C288.197 18.8 287.386 18.992 286.938 19.376C286.511 19.76 286.298 20.24 286.298 20.816C286.298 21.456 286.543 21.968 287.034 22.352C287.546 22.7147 288.239 22.896 289.114 22.896C289.946 22.896 290.693 22.704 291.354 22.32C292.015 21.9147 292.495 21.328 292.794 20.56L293.562 22.864C293.199 23.9733 292.538 24.816 291.578 25.392C290.618 25.968 289.381 26.256 287.866 26.256ZM309.344 26.256C307.317 26.256 305.739 25.744 304.608 24.72C303.477 23.6747 302.912 22.128 302.912 20.08V4.976H307.904V20.016C307.904 20.7413 308.096 21.3067 308.48 21.712C308.864 22.096 309.387 22.288 310.048 22.288C310.837 22.288 311.509 22.0747 312.064 21.648L313.408 25.168C312.896 25.5307 312.277 25.808 311.552 26C310.848 26.1707 310.112 26.256 309.344 26.256ZM300.256 13.008V9.168H312.192V13.008H300.256ZM316.21 26V8.784H321.202V26H316.21ZM318.706 6.384C317.789 6.384 317.042 6.11733 316.466 5.584C315.89 5.05067 315.602 4.38933 315.602 3.6C315.602 2.81067 315.89 2.14933 316.466 1.616C317.042 1.08267 317.789 0.815998 318.706 0.815998C319.624 0.815998 320.37 1.072 320.946 1.584C321.522 2.07467 321.81 2.71467 321.81 3.504C321.81 4.336 321.522 5.02933 320.946 5.584C320.392 6.11733 319.645 6.384 318.706 6.384ZM334.027 26.256C332.193 26.256 330.561 25.872 329.131 25.104C327.723 24.336 326.603 23.2907 325.771 21.968C324.961 20.624 324.555 19.0987 324.555 17.392C324.555 15.664 324.961 14.1387 325.771 12.816C326.603 11.472 327.723 10.4267 329.131 9.68C330.561 8.912 332.193 8.528 334.027 8.528C335.841 8.528 337.462 8.912 338.891 9.68C340.321 10.4267 341.441 11.4613 342.251 12.784C343.062 14.1067 343.467 15.6427 343.467 17.392C343.467 19.0987 343.062 20.624 342.251 21.968C341.441 23.2907 340.321 24.336 338.891 25.104C337.462 25.872 335.841 26.256 334.027 26.256ZM334.027 22.16C334.859 22.16 335.606 21.968 336.267 21.584C336.929 21.2 337.451 20.656 337.835 19.952C338.219 19.2267 338.411 18.3733 338.411 17.392C338.411 16.3893 338.219 15.536 337.835 14.832C337.451 14.128 336.929 13.584 336.267 13.2C335.606 12.816 334.859 12.624 334.027 12.624C333.195 12.624 332.449 12.816 331.787 13.2C331.126 13.584 330.593 14.128 330.187 14.832C329.803 15.536 329.611 16.3893 329.611 17.392C329.611 18.3733 329.803 19.2267 330.187 19.952C330.593 20.656 331.126 21.2 331.787 21.584C332.449 21.968 333.195 22.16 334.027 22.16ZM357.268 8.528C358.633 8.528 359.849 8.80533 360.916 9.36C362.004 9.89333 362.857 10.7253 363.476 11.856C364.095 12.9653 364.404 14.3947 364.404 16.144V26H359.412V16.912C359.412 15.5253 359.103 14.5013 358.484 13.84C357.887 13.1787 357.033 12.848 355.924 12.848C355.135 12.848 354.42 13.0187 353.78 13.36C353.161 13.68 352.671 14.1813 352.308 14.864C351.967 15.5467 351.796 16.4213 351.796 17.488V26H346.804V8.784H351.572V13.552L350.676 12.112C351.295 10.96 352.18 10.0747 353.332 9.456C354.484 8.83733 355.796 8.528 357.268 8.528Z" fill="#EE685F"/>
</g>
<defs>
<filter id="filter0_d_317_883" x="0.656006" y="0.815918" width="367.748" height="33.4402" filterUnits="userSpaceOnUse" color-interpolation-filters="sRGB">
<feFlood flood-opacity="0" result="BackgroundImageFix"/>
<feColorMatrix in="SourceAlpha" type="matrix" values="0 0 0 0 0 0 0 0 0 0 0 0 0 0 0 0 0 0 127 0" result="hardAlpha"/>
<feOffset dy="4"/>
<feGaussianBlur stdDeviation="2"/>
<feComposite in2="hardAlpha" operator="out"/>
<feColorMatrix type="matrix" values="0 0 0 0 0 0 0 0 0 0 0 0 0 0 0 0 0 0 0.25 0"/>
<feBlend mode="normal" in2="BackgroundImageFix" result="effect1_dropShadow_317_883"/>
<feBlend mode="normal" in="SourceGraphic" in2="effect1_dropShadow_317_883" result="shape"/>
</filter>
</defs>
</svg>
